<svg width="64" height="64" viewBox="0 0 64 64" fill="none" xmlns="http://www.w3.org/2000/svg">
<path d="M41.3952 34.4591C40.1153 34.4591 39.0776 35.4922 39.0776 36.7666C39.0776 38.021 40.0831 39.0416 41.3354 39.0732L41.3952 39.074H43.7127C44.9927 39.074 46.0303 38.0409 46.0303 36.7666C46.0303 35.4922 44.9927 34.4591 43.7127 34.4591H41.3952ZM34.4426 27.5369V20.6148H36.7601C38.04 20.6148 39.0776 19.5817 39.0776 18.3074C39.0776 17.033 38.04 16 36.7601 16H22.8548L22.795 16.0007C21.5427 16.0323 20.5373 17.0529 20.5373 18.3074C20.5373 19.5618 21.5427 20.5824 22.795 20.614L22.8548 20.6148H29.8075V27.5369C29.8075 28.8113 30.845 29.8444 32.125 29.8444C33.4049 29.8444 34.4426 28.8113 34.4426 27.5369Z" fill="#34D399"/>
<path d="M55.334 43.7628V29.9185C55.334 28.6945 54.8458 27.5208 53.9769 26.6554C53.108 25.7899 51.9295 25.3037 50.7006 25.3037H27.5336L27.5321 25.3038L27.5321 25.3037C27.5314 25.3037 27.5306 25.3038 27.5299 25.3038C27.4761 25.3038 27.4222 25.304 27.3684 25.3045C27.368 25.3045 27.3677 25.3046 27.3673 25.3046C22.5119 25.3479 17.8649 27.2875 14.4283 30.7103C10.9526 34.172 9.00001 38.8672 9 43.7628C9 44.9868 9.48817 46.1606 10.3571 47.026C11.226 47.8914 12.4045 48.3777 13.6334 48.3777H50.7006C51.9295 48.3777 53.108 47.8914 53.9769 47.026C54.8458 46.1606 55.334 44.9868 55.334 43.7628ZM17.1837 34.5333C18.0359 33.5844 19.0195 32.7522 20.1103 32.0646C22.3317 30.6643 24.9062 29.9202 27.5351 29.9185H29.8503V34.5333H17.1837ZM50.7006 43.7628H13.6334C13.6334 42.1756 13.9073 40.6166 14.4286 39.1481H29.8503C31.0792 39.1481 32.2576 38.6619 33.1266 37.7964C33.9955 36.931 34.4837 35.7572 34.4837 34.5333V29.9185H50.7006V43.7628Z" fill="white"/>
</svg>
